<svg 
 xmlns="http://www.w3.org/2000/svg"
 xmlns:xlink="http://www.w3.org/1999/xlink"
 width="28px" height="27px">
<path fill-rule="evenodd"  fill="rgb(51, 51, 51)"
 d="M28.000,5.056 C28.000,4.967 27.963,4.902 27.941,4.863 C27.937,4.856 27.933,4.850 27.929,4.839 L27.919,4.805 C27.899,4.732 27.873,4.641 27.808,4.563 C27.736,4.467 27.650,4.420 27.582,4.382 L27.570,4.377 C27.564,4.372 27.560,4.367 27.555,4.362 C27.522,4.327 27.468,4.269 27.361,4.245 L27.322,4.242 C27.307,4.242 27.293,4.243 27.281,4.245 C27.257,4.234 27.223,4.224 27.184,4.224 L6.654,4.224 L5.768,0.631 C5.679,0.260 5.352,-0.000 4.974,-0.000 L0.821,-0.000 C0.368,-0.000 -0.000,0.373 -0.000,0.832 C-0.000,1.291 0.368,1.665 0.821,1.665 L4.335,1.665 L8.140,17.108 C7.705,17.260 7.357,17.472 7.079,17.753 C6.533,18.313 6.233,19.050 6.236,19.831 C6.236,20.623 6.557,21.355 7.146,21.919 C7.124,21.936 7.101,21.955 7.080,21.977 C6.533,22.534 6.233,23.272 6.236,24.055 C6.236,25.679 7.535,27.000 9.132,27.000 C9.913,27.000 10.643,26.693 11.189,26.134 C11.733,25.574 12.032,24.836 12.030,24.055 C12.030,23.626 11.919,23.205 11.694,22.778 L21.683,22.778 C21.456,23.211 21.346,23.631 21.348,24.055 C21.348,25.679 22.648,27.000 24.246,27.000 C25.024,27.000 25.753,26.693 26.297,26.136 C26.847,25.583 27.148,24.843 27.146,24.055 C27.146,22.438 25.847,21.117 24.248,21.110 L9.132,21.110 C8.438,21.110 7.874,20.536 7.874,19.829 C7.872,19.494 8.002,19.174 8.237,18.932 C8.481,18.689 8.799,18.555 9.135,18.555 L24.062,18.555 C24.437,18.555 24.763,18.296 24.856,17.925 L27.975,5.260 C27.985,5.222 27.984,5.187 27.980,5.158 C27.991,5.132 28.000,5.097 28.000,5.056 ZM26.131,5.889 L23.419,16.889 L9.774,16.889 L7.064,5.889 L26.131,5.889 ZM7.875,24.055 C7.873,23.716 8.003,23.397 8.239,23.157 C8.481,22.913 8.799,22.779 9.133,22.779 C9.829,22.779 10.395,23.355 10.395,24.064 C10.397,24.398 10.267,24.716 10.030,24.959 C9.792,25.202 9.473,25.336 9.133,25.336 C8.439,25.336 7.875,24.762 7.875,24.055 ZM25.141,24.959 C24.904,25.202 24.586,25.336 24.247,25.336 C23.552,25.336 22.987,24.762 22.987,24.057 C22.987,23.716 23.117,23.397 23.353,23.157 C23.595,22.913 23.913,22.779 24.247,22.779 C24.943,22.779 25.509,23.355 25.509,24.063 C25.509,24.398 25.378,24.717 25.141,24.959 Z"/>
</svg>