<svg 
 xmlns="http://www.w3.org/2000/svg"
 xmlns:xlink="http://www.w3.org/1999/xlink"
 width="21px" height="21px">
<path fill-rule="evenodd"  fill="rgb(235, 199, 18)"
 d="M10.500,21.000 C4.710,21.000 -0.000,16.290 -0.000,10.500 C-0.000,4.710 4.710,-0.000 10.500,-0.000 C16.290,-0.000 21.000,4.710 21.000,10.500 C21.000,16.290 16.290,21.000 10.500,21.000 ZM10.500,1.697 C5.646,1.697 1.696,5.646 1.696,10.500 C1.696,15.354 5.646,19.303 10.500,19.303 C15.354,19.303 19.303,15.354 19.303,10.500 C19.303,5.646 15.354,1.697 10.500,1.697 ZM12.032,10.660 C11.577,11.069 11.230,11.410 11.230,11.769 L11.230,12.281 C11.230,12.793 10.858,13.165 10.346,13.165 C9.834,13.165 9.462,12.793 9.462,12.281 L9.462,11.820 C9.462,10.738 10.159,10.044 10.720,9.485 L10.817,9.389 C11.351,8.904 11.767,8.526 11.767,7.978 C11.767,7.208 11.116,6.557 10.346,6.557 C9.811,6.557 9.333,6.848 9.095,7.317 C8.973,7.611 8.674,7.808 8.346,7.808 C8.201,7.808 8.056,7.769 7.926,7.697 C7.719,7.605 7.559,7.430 7.486,7.215 C7.408,6.982 7.438,6.724 7.568,6.506 C8.140,5.419 9.173,4.789 10.397,4.789 C12.098,4.789 13.535,6.226 13.535,7.927 C13.535,9.281 12.557,10.178 12.032,10.660 ZM10.500,13.934 C11.162,13.934 11.743,14.514 11.743,15.177 C11.743,15.839 11.162,16.420 10.500,16.420 C9.838,16.420 9.257,15.839 9.257,15.177 C9.257,14.514 9.838,13.934 10.500,13.934 Z"/>
</svg>