<svg 
 xmlns="http://www.w3.org/2000/svg"
 xmlns:xlink="http://www.w3.org/1999/xlink"
 width="12px" height="11px">
<path fill-rule="evenodd"  fill="rgb(119, 119, 119)"
 d="M10.202,0.000 L1.795,0.000 C0.806,0.002 0.001,0.818 -0.000,1.819 L-0.000,7.242 C0.001,8.243 0.806,9.058 1.796,9.060 L6.426,9.060 L8.085,10.742 C8.249,10.906 8.467,10.997 8.697,10.998 L8.699,10.998 C9.179,10.998 9.570,10.603 9.571,10.118 L9.571,9.060 L10.204,9.060 C11.193,9.058 11.999,8.243 12.000,7.242 L12.000,1.819 C11.999,0.816 11.192,0.000 10.202,0.000 ZM1.126,7.242 L1.126,1.819 C1.127,1.446 1.428,1.142 1.796,1.142 L10.203,1.142 C10.572,1.142 10.872,1.446 10.873,1.819 L10.879,1.969 L10.879,7.241 C10.878,7.614 10.578,7.918 10.210,7.919 L9.014,7.919 C8.703,7.919 8.450,8.175 8.450,8.490 L8.450,9.495 L7.062,8.088 C6.957,7.981 6.811,7.919 6.662,7.919 L1.796,7.919 C1.428,7.918 1.127,7.614 1.126,7.242 ZM8.699,10.838 L8.699,10.838 L8.699,10.838 L8.699,10.838 Z"/>
</svg>