<svg 
 xmlns="http://www.w3.org/2000/svg"
 xmlns:xlink="http://www.w3.org/1999/xlink"
 width="18px" height="16px">
<path fill-rule="evenodd"  fill="rgb(51, 51, 51)"
 d="M17.303,5.073 C16.980,4.667 16.643,4.582 16.416,4.582 L12.626,4.582 C12.752,3.949 12.726,3.003 12.140,1.719 C11.430,0.164 10.400,-0.023 9.848,0.001 C9.006,0.040 8.317,0.593 8.137,1.104 C7.944,1.653 7.961,2.901 7.980,3.476 L6.316,6.508 L6.195,6.556 C6.112,6.102 5.782,5.366 5.154,5.366 L0.950,5.366 C0.260,5.366 0.002,6.222 0.002,6.762 L0.002,15.116 C0.002,15.323 0.071,16.001 0.950,16.001 L5.154,16.001 C6.140,16.001 6.217,15.323 6.217,15.116 L6.217,14.446 C6.874,14.786 7.837,15.216 8.510,15.216 L13.331,15.216 L13.987,15.216 L14.102,15.216 C14.120,15.216 14.138,15.213 14.155,15.211 C15.550,15.155 16.060,14.420 16.239,13.974 C16.593,13.095 17.824,8.031 17.968,7.438 C18.099,6.817 17.776,5.668 17.303,5.073 ZM5.017,14.780 L1.203,14.780 L1.203,6.762 C1.203,6.716 1.213,6.650 1.227,6.587 L4.952,6.587 C4.983,6.651 5.012,6.727 5.017,6.762 L5.017,14.780 ZM16.798,7.164 C16.425,8.701 15.399,12.838 15.128,13.512 C14.999,13.833 14.615,13.996 13.987,13.996 L13.331,13.996 L8.510,13.996 C8.027,13.996 6.904,13.460 6.217,13.058 L6.217,7.858 L7.155,7.485 L9.194,3.770 L9.186,3.596 C9.152,2.817 9.172,1.815 9.263,1.527 C9.325,1.431 9.620,1.207 9.976,1.221 C10.493,1.244 10.846,1.784 11.051,2.233 C11.850,3.985 11.310,4.734 11.299,4.749 L11.341,4.788 C11.247,4.896 11.188,5.037 11.188,5.192 C11.188,5.529 11.456,5.803 11.788,5.803 L16.340,5.803 C16.571,6.020 16.846,6.910 16.798,7.164 Z"/>
</svg>