<svg 
 xmlns="http://www.w3.org/2000/svg"
 xmlns:xlink="http://www.w3.org/1999/xlink"
 width="13px" height="13px">
<path fill-rule="evenodd"  fill="rgb(119, 119, 119)"
 d="M6.505,12.994 C2.919,12.994 0.002,10.077 0.002,6.491 C0.002,2.906 2.919,-0.010 6.505,-0.010 C10.090,-0.010 13.007,2.906 13.007,6.491 C13.007,10.077 10.090,12.994 6.505,12.994 ZM6.505,1.089 C3.526,1.089 1.101,3.512 1.101,6.491 C1.101,9.471 3.526,11.895 6.505,11.895 C9.484,11.895 11.908,9.471 11.908,6.491 C11.908,3.512 9.484,1.089 6.505,1.089 ZM7.441,6.447 C7.040,6.726 6.694,6.966 6.694,7.346 C6.694,7.484 6.788,7.653 6.923,7.757 L7.023,7.834 L6.282,8.149 L6.248,8.120 C5.987,7.897 5.849,7.610 5.849,7.289 C5.849,6.615 6.356,6.259 6.804,5.944 C7.204,5.664 7.581,5.400 7.581,4.954 C7.581,4.458 7.166,4.137 6.525,4.137 C5.907,4.137 5.456,4.370 5.062,4.892 L5.009,4.963 L4.429,4.337 L4.467,4.287 C4.969,3.639 5.726,3.283 6.601,3.283 C7.749,3.283 8.550,3.923 8.550,4.839 C8.550,5.678 7.961,6.087 7.441,6.447 ZM6.496,8.804 C6.821,8.804 7.096,9.078 7.096,9.404 C7.096,9.728 6.821,10.003 6.496,10.003 C6.171,10.003 5.896,9.728 5.896,9.404 C5.896,9.078 6.171,8.804 6.496,8.804 Z"/>
</svg>