<svg 
 xmlns="http://www.w3.org/2000/svg"
 xmlns:xlink="http://www.w3.org/1999/xlink"
 width="25px" height="18px">
<path fill-rule="evenodd"  fill="rgb(51, 51, 51)"
 d="M24.921,8.081 L20.946,1.215 C20.865,0.987 20.653,0.824 20.402,0.824 L13.782,0.824 C13.546,0.336 13.056,-0.001 12.488,-0.001 C11.919,-0.001 11.429,0.336 11.193,0.824 L4.586,0.824 C4.354,0.824 4.155,0.963 4.062,1.164 C4.052,1.178 4.042,1.192 4.033,1.207 L0.055,8.081 C-0.030,8.227 -0.045,8.395 -0.002,8.546 C-0.004,8.596 -0.008,8.646 -0.008,8.696 C-0.008,11.417 1.860,13.319 4.534,13.319 C7.208,13.319 9.075,11.417 9.075,8.696 C9.075,8.646 9.072,8.597 9.070,8.548 C9.113,8.397 9.099,8.227 9.014,8.081 L5.499,2.009 L11.147,2.009 C11.286,2.369 11.560,2.659 11.906,2.814 L11.906,16.813 L7.423,16.813 C7.101,16.813 6.841,17.079 6.841,17.406 C6.841,17.733 7.101,17.998 7.423,17.998 L17.553,17.998 C17.874,17.998 18.134,17.733 18.134,17.406 C18.134,17.079 17.874,16.813 17.553,16.813 L13.069,16.813 L13.069,2.814 C13.415,2.659 13.689,2.369 13.828,2.009 L19.475,2.009 L15.960,8.081 C15.875,8.228 15.861,8.397 15.905,8.549 C15.903,8.598 15.899,8.647 15.899,8.696 C15.899,11.417 17.767,13.319 20.441,13.319 C23.115,13.319 24.982,11.417 24.982,8.696 C24.982,8.646 24.979,8.596 24.976,8.548 C25.020,8.397 25.006,8.227 24.921,8.081 ZM4.534,12.133 C2.584,12.133 1.290,10.915 1.165,9.003 L7.903,9.003 C7.778,10.915 6.484,12.133 4.534,12.133 ZM7.512,7.818 L1.557,7.818 L4.534,2.674 L7.512,7.818 ZM13.026,1.470 C13.026,1.773 12.784,2.019 12.488,2.019 C12.191,2.019 11.949,1.773 11.949,1.470 C11.949,1.167 12.191,0.921 12.488,0.921 C12.784,0.921 13.026,1.167 13.026,1.470 ZM20.441,2.674 L23.418,7.818 L17.463,7.818 L20.441,2.674 ZM20.441,12.133 C18.491,12.133 17.196,10.915 17.072,9.003 L23.809,9.003 C23.685,10.915 22.391,12.133 20.441,12.133 Z"/>
</svg>