<svg 
 xmlns="http://www.w3.org/2000/svg"
 xmlns:xlink="http://www.w3.org/1999/xlink"
 width="32px" height="23px">
<path fill-rule="evenodd"  fill="rgb(51, 51, 51)"
 d="M31.899,10.326 L26.817,1.553 C26.713,1.263 26.442,1.054 26.120,1.054 L17.655,1.054 C17.354,0.431 16.726,0.000 16.000,0.000 C15.274,0.000 14.646,0.431 14.345,1.054 L5.895,1.054 C5.598,1.054 5.344,1.232 5.225,1.489 C5.213,1.506 5.200,1.524 5.189,1.543 L0.101,10.327 C-0.007,10.514 -0.026,10.728 0.029,10.921 C0.026,10.985 0.022,11.049 0.022,11.113 C0.022,14.591 2.410,17.020 5.829,17.020 C9.248,17.020 11.636,14.591 11.636,11.113 C11.636,11.049 11.632,10.986 11.629,10.923 C11.685,10.730 11.666,10.514 11.558,10.326 L7.064,2.568 L14.285,2.568 C14.464,3.028 14.814,3.399 15.256,3.598 L15.256,21.485 L9.523,21.485 C9.112,21.485 8.780,21.824 8.780,22.242 C8.780,22.660 9.112,22.999 9.523,22.999 L22.477,22.999 C22.888,22.999 23.221,22.660 23.221,22.242 C23.221,21.824 22.888,21.485 22.477,21.485 L16.743,21.485 L16.743,3.598 C17.185,3.399 17.536,3.028 17.714,2.568 L24.935,2.568 L20.441,10.326 C20.332,10.515 20.314,10.731 20.370,10.925 C20.367,10.987 20.363,11.050 20.363,11.113 C20.363,14.591 22.751,17.020 26.171,17.020 C29.589,17.020 31.977,14.591 31.977,11.113 C31.977,11.049 31.973,10.986 31.970,10.923 C32.026,10.730 32.007,10.514 31.899,10.326 ZM5.829,15.505 C3.336,15.505 1.680,13.949 1.521,11.505 L10.137,11.505 C9.978,13.949 8.323,15.505 5.829,15.505 ZM9.637,9.990 L2.022,9.990 L5.829,3.418 L9.637,9.990 ZM16.688,1.880 C16.688,2.266 16.379,2.580 16.000,2.580 C15.620,2.580 15.311,2.266 15.311,1.880 C15.311,1.493 15.620,1.178 16.000,1.178 C16.379,1.178 16.688,1.493 16.688,1.880 ZM26.170,3.418 L29.977,9.990 L22.362,9.990 L26.170,3.418 ZM26.171,15.505 C23.677,15.505 22.021,13.949 21.862,11.505 L30.478,11.505 C30.319,13.949 28.664,15.505 26.171,15.505 Z"/>
</svg>