<svg 
 xmlns="http://www.w3.org/2000/svg"
 xmlns:xlink="http://www.w3.org/1999/xlink"
 width="26px" height="25px">
<path fill-rule="evenodd"  fill="rgb(51, 51, 51)"
 d="M25.650,7.056 L13.424,0.121 C13.171,-0.044 12.827,-0.044 12.574,0.121 L0.348,7.056 C0.130,7.198 -0.001,7.438 -0.001,7.698 L-0.001,24.231 C-0.001,24.655 0.347,25.000 0.773,25.000 L25.225,25.000 C25.651,25.000 25.998,24.655 25.998,24.231 L25.998,7.698 C25.998,7.438 25.868,7.198 25.650,7.056 ZM20.781,23.463 L5.217,23.463 L5.217,21.579 L20.781,21.579 L20.781,23.463 ZM20.781,20.041 L5.217,20.041 L5.217,18.122 L20.781,18.122 L20.781,20.041 ZM20.781,16.585 L5.217,16.585 L5.217,14.632 L20.781,14.632 L20.781,16.585 ZM20.781,13.094 L5.217,13.094 L5.217,11.222 L20.781,11.222 L20.781,13.094 ZM24.451,23.463 L22.328,23.463 L22.328,10.453 C22.328,10.029 21.981,9.685 21.555,9.685 L4.443,9.685 C4.016,9.685 3.669,10.029 3.669,10.453 L3.669,23.463 L1.547,23.463 L1.547,8.112 L12.999,1.683 L24.451,8.112 L24.451,23.463 Z"/>
</svg>