<svg 
 xmlns="http://www.w3.org/2000/svg"
 xmlns:xlink="http://www.w3.org/1999/xlink"
 width="20px" height="15px">
<path fill-rule="evenodd"  fill="rgb(235, 199, 18)"
 d="M19.205,10.500 L0.806,10.500 C0.360,10.500 -0.001,10.126 -0.001,9.666 C-0.001,9.206 0.360,8.833 0.806,8.833 L19.205,8.833 C19.651,8.833 20.012,9.206 20.012,9.666 C20.012,10.126 19.651,10.500 19.205,10.500 ZM0.806,4.375 L14.522,4.375 C14.968,4.375 15.329,4.748 15.329,5.208 C15.329,5.668 14.968,6.042 14.522,6.042 L0.806,6.042 C0.360,6.042 -0.001,5.668 -0.001,5.208 C-0.001,4.748 0.360,4.375 0.806,4.375 ZM16.923,1.666 L0.806,1.666 C0.360,1.666 -0.001,1.293 -0.001,0.833 C-0.001,0.373 0.360,-0.000 0.806,-0.000 L16.923,-0.000 C17.368,-0.000 17.729,0.373 17.729,0.833 C17.729,1.293 17.368,1.666 16.923,1.666 ZM0.806,13.333 L7.095,13.333 C7.540,13.333 7.901,13.706 7.901,14.167 C7.901,14.627 7.540,15.000 7.095,15.000 L0.806,15.000 C0.360,15.000 -0.001,14.627 -0.001,14.167 C-0.001,13.706 0.360,13.333 0.806,13.333 Z"/>
</svg>