<svg 
 xmlns="http://www.w3.org/2000/svg"
 xmlns:xlink="http://www.w3.org/1999/xlink"
 width="33px" height="26px">
<path fill-rule="evenodd"  fill="rgb(51, 51, 51)"
 d="M17.033,5.000 C15.001,5.000 13.351,5.829 11.999,7.532 C10.648,5.829 8.997,5.000 6.966,5.000 C2.605,5.000 -0.001,8.617 -0.001,12.115 C-0.001,15.113 1.480,18.064 4.399,20.885 C6.983,23.384 10.021,25.103 11.604,25.907 C11.726,25.968 11.862,26.000 11.999,26.000 C12.136,26.000 12.273,25.968 12.397,25.906 C13.977,25.103 17.015,23.384 19.600,20.885 C22.519,18.064 23.999,15.113 23.999,12.115 C23.999,8.617 21.393,5.000 17.033,5.000 ZM17.033,6.718 C20.459,6.718 22.252,9.433 22.252,12.115 C22.252,14.629 20.947,17.165 18.373,19.654 C16.115,21.836 13.472,23.389 11.999,24.164 C10.527,23.389 7.884,21.836 5.625,19.654 C3.051,17.165 1.746,14.629 1.746,12.115 C1.746,9.433 3.539,6.718 6.966,6.718 C8.842,6.718 10.083,7.501 11.249,9.421 C11.405,9.680 11.693,9.840 12.000,9.840 C12.157,9.840 12.311,9.799 12.446,9.720 C12.570,9.647 12.675,9.543 12.749,9.421 C13.916,7.501 15.156,6.718 17.033,6.718 Z"/>
<path fill-rule="evenodd"  fill="rgb(251, 37, 57)"
 d="M25.000,-0.000 C29.418,-0.000 33.000,3.582 33.000,8.000 C33.000,12.418 29.418,16.000 25.000,16.000 C20.582,16.000 17.000,12.418 17.000,8.000 C17.000,3.582 20.582,-0.000 25.000,-0.000 Z"/>
<text kerning="auto" font-family="Myriad Pro" fill="rgb(0, 0, 0)" font-size="10px" x="23px" y="11.062px"><tspan font-size="10px" font-family="ProximaNova" fill="#FFFFFF">&#49;</tspan></text>
</svg>