<svg 
 xmlns="http://www.w3.org/2000/svg"
 xmlns:xlink="http://www.w3.org/1999/xlink"
 width="19px" height="19px">
<path fill-rule="evenodd"  fill="rgb(235, 199, 18)"
 d="M14.801,19.003 C12.283,19.003 10.629,17.205 10.629,14.881 C10.629,12.532 12.283,10.682 14.801,10.682 C17.320,10.682 18.998,12.532 18.998,14.881 C18.998,17.205 17.320,19.003 14.801,19.003 ZM14.801,12.656 C13.666,12.656 12.851,13.506 12.851,14.881 C12.851,16.230 13.666,17.054 14.801,17.054 C15.937,17.054 16.777,16.230 16.777,14.881 C16.777,13.506 15.937,12.656 14.801,12.656 ZM4.907,18.168 C4.784,18.363 4.571,18.481 4.341,18.481 L3.908,18.481 C3.377,18.481 3.056,17.888 3.342,17.435 L14.002,0.541 C14.126,0.345 14.340,0.226 14.569,0.226 L15.027,0.226 C15.559,0.226 15.880,0.821 15.593,1.273 L4.907,18.168 ZM4.112,8.182 C1.628,8.182 -0.004,6.432 -0.004,4.139 C-0.004,1.822 1.628,-0.002 4.112,-0.002 C6.621,-0.002 8.253,1.822 8.253,4.139 C8.253,6.432 6.621,8.182 4.112,8.182 ZM4.112,1.945 C3.016,1.945 2.188,2.759 2.188,4.139 C2.188,5.421 3.016,6.259 4.112,6.259 C5.232,6.259 6.036,5.421 6.036,4.139 C6.036,2.759 5.232,1.945 4.112,1.945 Z"/>
</svg>