<svg 
 xmlns="http://www.w3.org/2000/svg"
 xmlns:xlink="http://www.w3.org/1999/xlink"
 width="11px" height="14px">
<path fill-rule="evenodd"  fill="rgb(251, 37, 57)"
 d="M9.851,14.000 L1.149,14.000 C0.519,14.000 -0.000,13.452 -0.000,12.789 L-0.000,5.938 C-0.000,5.275 0.519,4.727 1.149,4.727 L1.998,4.727 C1.998,4.711 1.998,4.711 1.998,4.694 L1.998,2.571 C1.998,1.161 3.100,-0.000 4.437,-0.000 L6.766,-0.000 C8.104,-0.000 9.206,1.161 9.206,2.571 L9.206,2.704 C9.206,3.019 8.954,3.284 8.655,3.284 C8.356,3.284 8.104,3.019 8.104,2.704 L8.104,2.571 C8.104,1.791 7.506,1.161 6.766,1.161 L4.437,1.161 C3.698,1.161 3.100,1.791 3.100,2.571 L3.100,4.677 C3.100,4.694 3.100,4.694 3.100,4.711 L9.851,4.711 C10.480,4.711 11.000,5.258 11.000,5.938 L11.000,12.789 C11.000,13.452 10.480,14.000 9.851,14.000 ZM9.914,5.938 C9.914,5.922 9.898,5.888 9.867,5.888 L1.164,5.888 C1.149,5.888 1.117,5.905 1.117,5.938 L1.117,12.789 C1.117,12.805 1.133,12.838 1.164,12.838 L9.851,12.838 C9.867,12.838 9.898,12.822 9.898,12.789 L9.914,12.789 L9.914,5.938 ZM5.508,10.749 C4.821,10.749 4.264,10.162 4.264,9.438 C4.264,8.714 4.821,8.128 5.508,8.128 C6.194,8.128 6.751,8.714 6.751,9.438 C6.751,10.162 6.194,10.749 5.508,10.749 Z"/>
</svg>